<svg width="56" height="22" viewBox="0 0 56 22" fill="none" xmlns="http://www.w3.org/2000/svg">
<rect width="56" height="22" rx="11" fill="#F7E8EF"/>
<path d="M11.9325 15H9.10724V6.27273H12.022C12.8771 6.27273 13.6115 6.44744 14.2251 6.79688C14.8388 7.14347 15.3089 7.64205 15.6357 8.29261C15.9652 8.94034 16.13 9.71733 16.13 10.6236C16.13 11.5327 15.9638 12.3139 15.6314 12.9673C15.3018 13.6207 14.8246 14.1236 14.1996 14.4759C13.5746 14.8253 12.8189 15 11.9325 15ZM10.424 13.8494H11.8601C12.5249 13.8494 13.0774 13.7244 13.5178 13.4744C13.9581 13.2216 14.2876 12.8565 14.5064 12.3793C14.7251 11.8991 14.8345 11.3139 14.8345 10.6236C14.8345 9.93892 14.7251 9.35795 14.5064 8.88068C14.2905 8.40341 13.968 8.04119 13.5391 7.79403C13.1101 7.54687 12.5774 7.4233 11.9411 7.4233H10.424V13.8494ZM20.4862 15.1321C19.8413 15.1321 19.2859 14.9943 18.82 14.7188C18.3569 14.4403 17.9989 14.0497 17.7461 13.5469C17.4961 13.0412 17.3711 12.4489 17.3711 11.7699C17.3711 11.0994 17.4961 10.5085 17.7461 9.99716C17.9989 9.4858 18.3512 9.08665 18.8029 8.79972C19.2575 8.51278 19.7887 8.36932 20.3967 8.36932C20.766 8.36932 21.1239 8.4304 21.4705 8.55256C21.8171 8.67472 22.1282 8.86648 22.4038 9.12784C22.6793 9.3892 22.8967 9.72869 23.0558 10.1463C23.2148 10.5611 23.2944 11.0653 23.2944 11.6591V12.1108H18.0913V11.1562H22.0458C22.0458 10.821 21.9776 10.5241 21.8413 10.2656C21.7049 10.0043 21.5131 9.7983 21.266 9.64773C21.0217 9.49716 20.7347 9.42188 20.4052 9.42188C20.0472 9.42188 19.7347 9.50994 19.4677 9.68608C19.2035 9.85937 18.9989 10.0866 18.854 10.3679C18.712 10.6463 18.641 10.9489 18.641 11.2756V12.0213C18.641 12.4588 18.7177 12.831 18.8711 13.1378C19.0273 13.4446 19.2447 13.679 19.5231 13.8409C19.8015 14 20.1268 14.0795 20.4989 14.0795C20.7404 14.0795 20.9606 14.0455 21.1594 13.9773C21.3583 13.9062 21.5302 13.8011 21.6751 13.6619C21.82 13.5227 21.9308 13.3509 22.0075 13.1463L23.2134 13.3636C23.1168 13.7187 22.9435 14.0298 22.6935 14.2969C22.4464 14.5611 22.1353 14.767 21.7603 14.9148C21.3881 15.0597 20.9634 15.1321 20.4862 15.1321ZM29.6129 10.0526L28.4581 10.2571C28.4098 10.1094 28.3331 9.96875 28.228 9.83523C28.1257 9.7017 27.9865 9.59233 27.8104 9.5071C27.6342 9.42187 27.4141 9.37926 27.1499 9.37926C26.7891 9.37926 26.4879 9.46023 26.2464 9.62216C26.005 9.78125 25.8842 9.98722 25.8842 10.2401C25.8842 10.4588 25.9652 10.6349 26.1271 10.7685C26.2891 10.902 26.5504 11.0114 26.9112 11.0966L27.951 11.3352C28.5533 11.4744 29.0021 11.6889 29.2976 11.9787C29.593 12.2685 29.7408 12.6449 29.7408 13.108C29.7408 13.5 29.6271 13.8494 29.3999 14.1562C29.1754 14.4602 28.8615 14.6989 28.4581 14.8722C28.0575 15.0455 27.593 15.1321 27.0646 15.1321C26.3317 15.1321 25.7337 14.9759 25.2706 14.6634C24.8075 14.348 24.5234 13.9006 24.4183 13.321L25.6499 13.1335C25.7266 13.4545 25.8842 13.6974 26.1229 13.8622C26.3615 14.0241 26.6726 14.1051 27.0561 14.1051C27.4737 14.1051 27.8075 14.0185 28.0575 13.8452C28.3075 13.669 28.4325 13.4545 28.4325 13.2017C28.4325 12.9972 28.3558 12.8253 28.2024 12.6861C28.0518 12.5469 27.8203 12.4418 27.5078 12.3707L26.3999 12.1278C25.7891 11.9886 25.3374 11.767 25.0447 11.4631C24.755 11.1591 24.6101 10.7741 24.6101 10.3082C24.6101 9.92187 24.718 9.58381 24.9339 9.29403C25.1499 9.00426 25.4482 8.77841 25.8288 8.61648C26.2095 8.4517 26.6456 8.36932 27.1371 8.36932C27.8445 8.36932 28.4013 8.52273 28.8075 8.82955C29.2138 9.13352 29.4822 9.54119 29.6129 10.0526ZM31.1417 15V8.45455H32.4158V15H31.1417ZM31.7852 7.4446C31.5636 7.4446 31.3732 7.37074 31.2141 7.22301C31.0579 7.07244 30.9798 6.89347 30.9798 6.68608C30.9798 6.47585 31.0579 6.29687 31.2141 6.14915C31.3732 5.99858 31.5636 5.9233 31.7852 5.9233C32.0067 5.9233 32.1957 5.99858 32.3519 6.14915C32.511 6.29687 32.5906 6.47585 32.5906 6.68608C32.5906 6.89347 32.511 7.07244 32.3519 7.22301C32.1957 7.37074 32.0067 7.4446 31.7852 7.4446ZM36.8743 17.5909C36.3544 17.5909 35.907 17.5227 35.532 17.3864C35.1598 17.25 34.8558 17.0696 34.62 16.8452C34.3842 16.6207 34.2081 16.375 34.0916 16.108L35.1868 15.6562C35.2635 15.7812 35.3658 15.9134 35.4936 16.0526C35.6243 16.1946 35.8004 16.3153 36.022 16.4148C36.2464 16.5142 36.5348 16.5639 36.8871 16.5639C37.37 16.5639 37.7692 16.446 38.0845 16.2102C38.3999 15.9773 38.5575 15.6051 38.5575 15.0938V13.8068H38.4766C38.3999 13.946 38.2891 14.1009 38.1442 14.2713C38.0021 14.4418 37.8061 14.5895 37.5561 14.7145C37.3061 14.8395 36.9808 14.902 36.5803 14.902C36.0632 14.902 35.5973 14.7812 35.1825 14.5398C34.7706 14.2955 34.4439 13.9361 34.2024 13.4616C33.9638 12.9844 33.8445 12.3977 33.8445 11.7017C33.8445 11.0057 33.9624 10.4091 34.1982 9.91193C34.4368 9.41477 34.7635 9.03409 35.1783 8.76989C35.593 8.50284 36.0632 8.36932 36.5888 8.36932C36.995 8.36932 37.3232 8.4375 37.5732 8.57386C37.8232 8.70739 38.0178 8.86364 38.157 9.04261C38.299 9.22159 38.4084 9.37926 38.4851 9.51562H38.5788V8.45455H39.8274V15.1449C39.8274 15.7074 39.6967 16.169 39.4354 16.5298C39.174 16.8906 38.8203 17.1577 38.3743 17.331C37.9311 17.5043 37.4311 17.5909 36.8743 17.5909ZM36.8615 13.8452C37.228 13.8452 37.5376 13.7599 37.7905 13.5895C38.0462 13.4162 38.2393 13.169 38.37 12.848C38.5036 12.5241 38.5703 12.1364 38.5703 11.6847C38.5703 11.2443 38.505 10.8565 38.3743 10.5213C38.2436 10.1861 38.0518 9.92472 37.799 9.73722C37.5462 9.54687 37.2337 9.4517 36.8615 9.4517C36.478 9.4517 36.1584 9.55114 35.9027 9.75C35.647 9.94602 35.4538 10.2131 35.3232 10.5511C35.1953 10.8892 35.1314 11.267 35.1314 11.6847C35.1314 12.1136 35.1967 12.4901 35.3274 12.8139C35.4581 13.1378 35.6513 13.3906 35.907 13.5724C36.1655 13.7543 36.4837 13.8452 36.8615 13.8452ZM42.8104 11.1136V15H41.5362V8.45455H42.7592V9.51989H42.8402C42.9908 9.1733 43.2266 8.89489 43.5476 8.68466C43.8714 8.47443 44.2791 8.36932 44.7706 8.36932C45.2166 8.36932 45.6072 8.46307 45.9425 8.65057C46.2777 8.83523 46.5376 9.1108 46.7223 9.47727C46.907 9.84375 46.9993 10.2969 46.9993 10.8366V15H45.7251V10.9901C45.7251 10.5156 45.6016 10.1449 45.3544 9.87784C45.1072 9.60795 44.7678 9.47301 44.3359 9.47301C44.0405 9.47301 43.7777 9.53693 43.5476 9.66477C43.3203 9.79261 43.1399 9.98011 43.0064 10.2273C42.8757 10.4716 42.8104 10.767 42.8104 11.1136Z" fill="#6A1039"/>
</svg>
