<svg width="85" height="22" viewBox="0 0 85 22" fill="none" xmlns="http://www.w3.org/2000/svg">
<rect width="85" height="22" rx="11" fill="#F5F6F7"/>
<path d="M9.34553 15V6.27273H14.8171V7.40625H10.6623V10.0653H14.5316V11.1946H10.6623V13.8665H14.8683V15H9.34553ZM17.7479 11.1136V15H16.4737V8.45455H17.6967V9.51989H17.7777C17.9283 9.1733 18.1641 8.89489 18.4851 8.68466C18.8089 8.47443 19.2166 8.36932 19.7081 8.36932C20.1541 8.36932 20.5447 8.46307 20.88 8.65057C21.2152 8.83523 21.4751 9.1108 21.6598 9.47727C21.8445 9.84375 21.9368 10.2969 21.9368 10.8366V15H20.6626V10.9901C20.6626 10.5156 20.5391 10.1449 20.2919 9.87784C20.0447 9.60795 19.7053 9.47301 19.2734 9.47301C18.978 9.47301 18.7152 9.53693 18.4851 9.66477C18.2578 9.79261 18.0774 9.98011 17.9439 10.2273C17.8132 10.4716 17.7479 10.767 17.7479 11.1136ZM26.3899 17.5909C25.87 17.5909 25.4226 17.5227 25.0476 17.3864C24.6754 17.25 24.3714 17.0696 24.1357 16.8452C23.8999 16.6207 23.7237 16.375 23.6072 16.108L24.7024 15.6562C24.7791 15.7812 24.8814 15.9134 25.0092 16.0526C25.1399 16.1946 25.3161 16.3153 25.5376 16.4148C25.7621 16.5142 26.0504 16.5639 26.4027 16.5639C26.8857 16.5639 27.2848 16.446 27.6001 16.2102C27.9155 15.9773 28.0732 15.6051 28.0732 15.0938V13.8068H27.9922C27.9155 13.946 27.8047 14.1009 27.6598 14.2713C27.5178 14.4418 27.3217 14.5895 27.0717 14.7145C26.8217 14.8395 26.4964 14.902 26.0959 14.902C25.5788 14.902 25.1129 14.7812 24.6982 14.5398C24.2862 14.2955 23.9595 13.9361 23.718 13.4616C23.4794 12.9844 23.3601 12.3977 23.3601 11.7017C23.3601 11.0057 23.478 10.4091 23.7138 9.91193C23.9524 9.41477 24.2791 9.03409 24.6939 8.76989C25.1087 8.50284 25.5788 8.36932 26.1044 8.36932C26.5107 8.36932 26.8388 8.4375 27.0888 8.57386C27.3388 8.70739 27.5334 8.86364 27.6726 9.04261C27.8146 9.22159 27.924 9.37926 28.0007 9.51562H28.0945V8.45455H29.343V15.1449C29.343 15.7074 29.2124 16.169 28.951 16.5298C28.6896 16.8906 28.3359 17.1577 27.8899 17.331C27.4467 17.5043 26.9467 17.5909 26.3899 17.5909ZM26.3771 13.8452C26.7436 13.8452 27.0533 13.7599 27.3061 13.5895C27.5618 13.4162 27.755 13.169 27.8857 12.848C28.0192 12.5241 28.0859 12.1364 28.0859 11.6847C28.0859 11.2443 28.0206 10.8565 27.8899 10.5213C27.7592 10.1861 27.5675 9.92472 27.3146 9.73722C27.0618 9.54687 26.7493 9.4517 26.3771 9.4517C25.9936 9.4517 25.674 9.55114 25.4183 9.75C25.1626 9.94602 24.9695 10.2131 24.8388 10.5511C24.7109 10.8892 24.647 11.267 24.647 11.6847C24.647 12.1136 24.7124 12.4901 24.843 12.8139C24.9737 13.1378 25.1669 13.3906 25.4226 13.5724C25.6811 13.7543 25.9993 13.8452 26.3771 13.8452ZM31.0518 15V8.45455H32.326V15H31.0518ZM31.6953 7.4446C31.4737 7.4446 31.2834 7.37074 31.1243 7.22301C30.968 7.07244 30.8899 6.89347 30.8899 6.68608C30.8899 6.47585 30.968 6.29687 31.1243 6.14915C31.2834 5.99858 31.4737 5.9233 31.6953 5.9233C31.9169 5.9233 32.1058 5.99858 32.2621 6.14915C32.4212 6.29687 32.5007 6.47585 32.5007 6.68608C32.5007 6.89347 32.4212 7.07244 32.2621 7.22301C32.1058 7.37074 31.9169 7.4446 31.6953 7.4446ZM35.3143 11.1136V15H34.0401V8.45455H35.2631V9.51989H35.3441C35.4947 9.1733 35.7305 8.89489 36.0515 8.68466C36.3754 8.47443 36.783 8.36932 37.2745 8.36932C37.7205 8.36932 38.1112 8.46307 38.4464 8.65057C38.7816 8.83523 39.0415 9.1108 39.2262 9.47727C39.4109 9.84375 39.5032 10.2969 39.5032 10.8366V15H38.229V10.9901C38.229 10.5156 38.1055 10.1449 37.8583 9.87784C37.6112 9.60795 37.2717 9.47301 36.8398 9.47301C36.5444 9.47301 36.2816 9.53693 36.0515 9.66477C35.8242 9.79261 35.6438 9.98011 35.5103 10.2273C35.3796 10.4716 35.3143 10.767 35.3143 11.1136ZM44.033 15.1321C43.3881 15.1321 42.8327 14.9943 42.3668 14.7188C41.9038 14.4403 41.5458 14.0497 41.293 13.5469C41.043 13.0412 40.918 12.4489 40.918 11.7699C40.918 11.0994 41.043 10.5085 41.293 9.99716C41.5458 9.4858 41.8981 9.08665 42.3498 8.79972C42.8043 8.51278 43.3356 8.36932 43.9435 8.36932C44.3129 8.36932 44.6708 8.4304 45.0174 8.55256C45.364 8.67472 45.6751 8.86648 45.9506 9.12784C46.2262 9.3892 46.4435 9.72869 46.6026 10.1463C46.7617 10.5611 46.8413 11.0653 46.8413 11.6591V12.1108H41.6381V11.1562H45.5927C45.5927 10.821 45.5245 10.5241 45.3881 10.2656C45.2518 10.0043 45.06 9.7983 44.8129 9.64773C44.5685 9.49716 44.2816 9.42188 43.9521 9.42188C43.5941 9.42188 43.2816 9.50994 43.0146 9.68608C42.7504 9.85937 42.5458 10.0866 42.4009 10.3679C42.2589 10.6463 42.1879 10.9489 42.1879 11.2756V12.0213C42.1879 12.4588 42.2646 12.831 42.418 13.1378C42.5742 13.4446 42.7915 13.679 43.07 13.8409C43.3484 14 43.6737 14.0795 44.0458 14.0795C44.2873 14.0795 44.5075 14.0455 44.7063 13.9773C44.9052 13.9062 45.0771 13.8011 45.2219 13.6619C45.3668 13.5227 45.4776 13.3509 45.5543 13.1463L46.7603 13.3636C46.6637 13.7187 46.4904 14.0298 46.2404 14.2969C45.9933 14.5611 45.6822 14.767 45.3072 14.9148C44.935 15.0597 44.5103 15.1321 44.033 15.1321ZM51.076 15.1321C50.4311 15.1321 49.8757 14.9943 49.4098 14.7188C48.9467 14.4403 48.5888 14.0497 48.3359 13.5469C48.0859 13.0412 47.9609 12.4489 47.9609 11.7699C47.9609 11.0994 48.0859 10.5085 48.3359 9.99716C48.5888 9.4858 48.9411 9.08665 49.3928 8.79972C49.8473 8.51278 50.3786 8.36932 50.9865 8.36932C51.3558 8.36932 51.7138 8.4304 52.0604 8.55256C52.407 8.67472 52.718 8.86648 52.9936 9.12784C53.2692 9.3892 53.4865 9.72869 53.6456 10.1463C53.8047 10.5611 53.8842 11.0653 53.8842 11.6591V12.1108H48.6811V11.1562H52.6357C52.6357 10.821 52.5675 10.5241 52.4311 10.2656C52.2947 10.0043 52.103 9.7983 51.8558 9.64773C51.6115 9.49716 51.3246 9.42188 50.995 9.42188C50.6371 9.42188 50.3246 9.50994 50.0575 9.68608C49.7933 9.85937 49.5888 10.0866 49.4439 10.3679C49.3018 10.6463 49.2308 10.9489 49.2308 11.2756V12.0213C49.2308 12.4588 49.3075 12.831 49.4609 13.1378C49.6172 13.4446 49.8345 13.679 50.1129 13.8409C50.3913 14 50.7166 14.0795 51.0888 14.0795C51.3303 14.0795 51.5504 14.0455 51.7493 13.9773C51.9482 13.9062 52.12 13.8011 52.2649 13.6619C52.4098 13.5227 52.5206 13.3509 52.5973 13.1463L53.8033 13.3636C53.7067 13.7187 53.5334 14.0298 53.2834 14.2969C53.0362 14.5611 52.7251 14.767 52.3501 14.9148C51.978 15.0597 51.5533 15.1321 51.076 15.1321ZM55.2979 15V8.45455H56.5295V9.49432H56.5977C56.717 9.14205 56.9272 8.86506 57.2283 8.66335C57.5323 8.45881 57.8761 8.35653 58.2596 8.35653C58.3391 8.35653 58.4329 8.35937 58.5408 8.36506C58.6516 8.37074 58.7383 8.37784 58.8008 8.38636V9.60511C58.7496 9.59091 58.6587 9.57528 58.5281 9.55824C58.3974 9.53835 58.2667 9.52841 58.136 9.52841C57.8349 9.52841 57.5664 9.59233 57.3306 9.72017C57.0977 9.84517 56.913 10.0199 56.7766 10.2443C56.6403 10.4659 56.5721 10.7187 56.5721 11.0028V15H55.2979ZM59.9034 15V8.45455H61.1776V15H59.9034ZM60.5469 7.4446C60.3253 7.4446 60.1349 7.37074 59.9759 7.22301C59.8196 7.07244 59.7415 6.89347 59.7415 6.68608C59.7415 6.47585 59.8196 6.29687 59.9759 6.14915C60.1349 5.99858 60.3253 5.9233 60.5469 5.9233C60.7685 5.9233 60.9574 5.99858 61.1136 6.14915C61.2727 6.29687 61.3523 6.47585 61.3523 6.68608C61.3523 6.89347 61.2727 7.07244 61.1136 7.22301C60.9574 7.37074 60.7685 7.4446 60.5469 7.4446ZM64.1658 11.1136V15H62.8917V8.45455H64.1147V9.51989H64.1957C64.3462 9.1733 64.582 8.89489 64.9031 8.68466C65.2269 8.47443 65.6346 8.36932 66.1261 8.36932C66.5721 8.36932 66.9627 8.46307 67.2979 8.65057C67.6332 8.83523 67.8931 9.1108 68.0778 9.47727C68.2624 9.84375 68.3548 10.2969 68.3548 10.8366V15H67.0806V10.9901C67.0806 10.5156 66.957 10.1449 66.7099 9.87784C66.4627 9.60795 66.1232 9.47301 65.6914 9.47301C65.396 9.47301 65.1332 9.53693 64.9031 9.66477C64.6758 9.79261 64.4954 9.98011 64.3619 10.2273C64.2312 10.4716 64.1658 10.767 64.1658 11.1136ZM72.8079 17.5909C72.288 17.5909 71.8406 17.5227 71.4656 17.3864C71.0934 17.25 70.7894 17.0696 70.5536 16.8452C70.3178 16.6207 70.1417 16.375 70.0252 16.108L71.1204 15.6562C71.1971 15.7812 71.2994 15.9134 71.4272 16.0526C71.5579 16.1946 71.734 16.3153 71.9556 16.4148C72.18 16.5142 72.4684 16.5639 72.8207 16.5639C73.3036 16.5639 73.7028 16.446 74.0181 16.2102C74.3335 15.9773 74.4911 15.6051 74.4911 15.0938V13.8068H74.4102C74.3335 13.946 74.2227 14.1009 74.0778 14.2713C73.9357 14.4418 73.7397 14.5895 73.4897 14.7145C73.2397 14.8395 72.9144 14.902 72.5138 14.902C71.9968 14.902 71.5309 14.7812 71.1161 14.5398C70.7042 14.2955 70.3775 13.9361 70.136 13.4616C69.8974 12.9844 69.7781 12.3977 69.7781 11.7017C69.7781 11.0057 69.896 10.4091 70.1317 9.91193C70.3704 9.41477 70.6971 9.03409 71.1119 8.76989C71.5266 8.50284 71.9968 8.36932 72.5224 8.36932C72.9286 8.36932 73.2567 8.4375 73.5067 8.57386C73.7567 8.70739 73.9513 8.86364 74.0906 9.04261C74.2326 9.22159 74.342 9.37926 74.4187 9.51562H74.5124V8.45455H75.761V15.1449C75.761 15.7074 75.6303 16.169 75.369 16.5298C75.1076 16.8906 74.7539 17.1577 74.3079 17.331C73.8647 17.5043 73.3647 17.5909 72.8079 17.5909ZM72.7951 13.8452C73.1616 13.8452 73.4712 13.7599 73.7241 13.5895C73.9798 13.4162 74.1729 13.169 74.3036 12.848C74.4371 12.5241 74.5039 12.1364 74.5039 11.6847C74.5039 11.2443 74.4386 10.8565 74.3079 10.5213C74.1772 10.1861 73.9854 9.92472 73.7326 9.73722C73.4798 9.54687 73.1673 9.4517 72.7951 9.4517C72.4116 9.4517 72.092 9.55114 71.8363 9.75C71.5806 9.94602 71.3874 10.2131 71.2567 10.5511C71.1289 10.8892 71.065 11.267 71.065 11.6847C71.065 12.1136 71.1303 12.4901 71.261 12.8139C71.3917 13.1378 71.5849 13.3906 71.8406 13.5724C72.0991 13.7543 72.4173 13.8452 72.7951 13.8452Z" fill="#15294B"/>
</svg>
