<svg width="74" height="22" viewBox="0 0 74 22" fill="none" xmlns="http://www.w3.org/2000/svg">
<g style="mix-blend-mode:multiply">
<rect width="74" height="22" rx="11" fill="#F5F6F7"/>
<path d="M9.1131 6.27273H10.7111L13.4895 13.0568H13.5918L16.3702 6.27273H17.9682V15H16.7154V8.68466H16.6344L14.0605 14.9872H13.0208L10.4469 8.6804H10.3659V15H9.1131V6.27273ZM21.6852 15.1449C21.2704 15.1449 20.8954 15.0682 20.5602 14.9148C20.225 14.7585 19.9593 14.5327 19.7633 14.2372C19.5701 13.9418 19.4735 13.5795 19.4735 13.1506C19.4735 12.7812 19.5446 12.4773 19.6866 12.2386C19.8287 12 20.0204 11.8111 20.2619 11.6719C20.5034 11.5327 20.7733 11.4276 21.0716 11.3565C21.3699 11.2855 21.6738 11.2315 21.9835 11.1946C22.3755 11.1491 22.6937 11.1122 22.938 11.0838C23.1824 11.0526 23.3599 11.0028 23.4707 10.9347C23.5815 10.8665 23.6369 10.7557 23.6369 10.6023V10.5724C23.6369 10.2003 23.5318 9.91193 23.3216 9.70739C23.1142 9.50284 22.8045 9.40057 22.3926 9.40057C21.9636 9.40057 21.6255 9.49574 21.3784 9.68608C21.1341 9.87358 20.965 10.0824 20.8713 10.3125L19.6738 10.0398C19.8159 9.64205 20.0233 9.32102 20.296 9.0767C20.5716 8.82955 20.8883 8.65057 21.2463 8.53977C21.6042 8.42614 21.9806 8.36932 22.3755 8.36932C22.6369 8.36932 22.9139 8.40057 23.2065 8.46307C23.502 8.52273 23.7775 8.63352 24.0332 8.79545C24.2917 8.95739 24.5034 9.18892 24.6681 9.49006C24.8329 9.78835 24.9153 10.1761 24.9153 10.6534V15H23.671V14.1051H23.6199C23.5375 14.2699 23.4139 14.4318 23.2491 14.5909C23.0843 14.75 22.8727 14.8821 22.6142 14.9872C22.3556 15.0923 22.046 15.1449 21.6852 15.1449ZM21.9622 14.1222C22.3145 14.1222 22.6156 14.0526 22.8656 13.9134C23.1184 13.7741 23.3102 13.5923 23.4409 13.3679C23.5744 13.1406 23.6412 12.8977 23.6412 12.6392V11.7955C23.5957 11.8409 23.5076 11.8835 23.377 11.9233C23.2491 11.9602 23.1028 11.9929 22.938 12.0213C22.7733 12.0469 22.6127 12.071 22.4565 12.0938C22.3002 12.1136 22.1696 12.1307 22.0645 12.1449C21.8173 12.1761 21.5914 12.2287 21.3869 12.3026C21.1852 12.3764 21.0233 12.483 20.9011 12.6222C20.7818 12.7585 20.7221 12.9403 20.7221 13.1676C20.7221 13.483 20.8386 13.7216 21.0716 13.8835C21.3045 14.0426 21.6014 14.1222 21.9622 14.1222ZM26.6124 15V8.45455H27.8439V9.49432H27.9121C28.0314 9.14205 28.2417 8.86506 28.5428 8.66335C28.8468 8.45881 29.1905 8.35653 29.574 8.35653C29.6536 8.35653 29.7473 8.35937 29.8553 8.36506C29.9661 8.37074 30.0527 8.37784 30.1152 8.38636V9.60511C30.0641 9.59091 29.9732 9.57528 29.8425 9.55824C29.7118 9.53835 29.5811 9.52841 29.4505 9.52841C29.1493 9.52841 28.8809 9.59233 28.6451 9.72017C28.4121 9.84517 28.2275 10.0199 28.0911 10.2443C27.9547 10.4659 27.8865 10.7187 27.8865 11.0028V15H26.6124ZM32.3897 12.7798L32.3812 11.2244H32.6028L35.2108 8.45455H36.7363L33.7619 11.608H33.5616L32.3897 12.7798ZM31.2179 15V6.27273H32.492V15H31.2179ZM35.3514 15L33.0076 11.8892L33.8855 10.9986L36.9153 15H35.3514ZM40.449 15.1321C39.8042 15.1321 39.2488 14.9943 38.7828 14.7188C38.3198 14.4403 37.9618 14.0497 37.709 13.5469C37.459 13.0412 37.334 12.4489 37.334 11.7699C37.334 11.0994 37.459 10.5085 37.709 9.99716C37.9618 9.4858 38.3141 9.08665 38.7658 8.79972C39.2203 8.51278 39.7516 8.36932 40.3596 8.36932C40.7289 8.36932 41.0868 8.4304 41.4334 8.55256C41.78 8.67472 42.0911 8.86648 42.3667 9.12784C42.6422 9.3892 42.8596 9.72869 43.0186 10.1463C43.1777 10.5611 43.2573 11.0653 43.2573 11.6591V12.1108H38.0542V11.1562H42.0087C42.0087 10.821 41.9405 10.5241 41.8042 10.2656C41.6678 10.0043 41.476 9.7983 41.2289 9.64773C40.9846 9.49716 40.6976 9.42188 40.3681 9.42188C40.0101 9.42188 39.6976 9.50994 39.4306 9.68608C39.1664 9.85937 38.9618 10.0866 38.8169 10.3679C38.6749 10.6463 38.6039 10.9489 38.6039 11.2756V12.0213C38.6039 12.4588 38.6806 12.831 38.834 13.1378C38.9902 13.4446 39.2076 13.679 39.486 13.8409C39.7644 14 40.0897 14.0795 40.4618 14.0795C40.7033 14.0795 40.9235 14.0455 41.1223 13.9773C41.3212 13.9062 41.4931 13.8011 41.638 13.6619C41.7828 13.5227 41.8936 13.3509 41.9703 13.1463L43.1763 13.3636C43.0797 13.7187 42.9064 14.0298 42.6564 14.2969C42.4093 14.5611 42.0982 14.767 41.7232 14.9148C41.351 15.0597 40.9263 15.1321 40.449 15.1321ZM47.7264 8.45455V9.47727H44.1511V8.45455H47.7264ZM45.1099 6.88636H46.3841V13.0781C46.3841 13.3253 46.421 13.5114 46.4949 13.6364C46.5687 13.7585 46.6639 13.8423 46.7804 13.8878C46.8997 13.9304 47.0289 13.9517 47.1681 13.9517C47.2704 13.9517 47.3599 13.9446 47.4366 13.9304C47.5133 13.9162 47.573 13.9048 47.6156 13.8963L47.8457 14.9489C47.7718 14.9773 47.6667 15.0057 47.5304 15.0341C47.394 15.0653 47.2235 15.0824 47.019 15.0852C46.6838 15.0909 46.3713 15.0312 46.0815 14.9062C45.7917 14.7812 45.5574 14.5881 45.3784 14.3267C45.1994 14.0653 45.1099 13.7372 45.1099 13.3423V6.88636ZM49.1358 15V8.45455H50.41V15H49.1358ZM49.7793 7.4446C49.5577 7.4446 49.3674 7.37074 49.2083 7.22301C49.052 7.07244 48.9739 6.89347 48.9739 6.68608C48.9739 6.47585 49.052 6.29687 49.2083 6.14915C49.3674 5.99858 49.5577 5.9233 49.7793 5.9233C50.0009 5.9233 50.1898 5.99858 50.3461 6.14915C50.5051 6.29687 50.5847 6.47585 50.5847 6.68608C50.5847 6.89347 50.5051 7.07244 50.3461 7.22301C50.1898 7.37074 50.0009 7.4446 49.7793 7.4446ZM53.3983 11.1136V15H52.1241V8.45455H53.3471V9.51989H53.4281C53.5787 9.1733 53.8145 8.89489 54.1355 8.68466C54.4593 8.47443 54.867 8.36932 55.3585 8.36932C55.8045 8.36932 56.1951 8.46307 56.5304 8.65057C56.8656 8.83523 57.1255 9.1108 57.3102 9.47727C57.4949 9.84375 57.5872 10.2969 57.5872 10.8366V15H56.313V10.9901C56.313 10.5156 56.1895 10.1449 55.9423 9.87784C55.6951 9.60795 55.3556 9.47301 54.9238 9.47301C54.6284 9.47301 54.3656 9.53693 54.1355 9.66477C53.9082 9.79261 53.7278 9.98011 53.5943 10.2273C53.4636 10.4716 53.3983 10.767 53.3983 11.1136ZM62.0403 17.5909C61.5204 17.5909 61.073 17.5227 60.698 17.3864C60.3258 17.25 60.0218 17.0696 59.786 16.8452C59.5502 16.6207 59.3741 16.375 59.2576 16.108L60.3528 15.6562C60.4295 15.7812 60.5318 15.9134 60.6596 16.0526C60.7903 16.1946 60.9664 16.3153 61.188 16.4148C61.4125 16.5142 61.7008 16.5639 62.0531 16.5639C62.536 16.5639 62.9352 16.446 63.2505 16.2102C63.5659 15.9773 63.7235 15.6051 63.7235 15.0938V13.8068H63.6426C63.5659 13.946 63.4551 14.1009 63.3102 14.2713C63.1681 14.4418 62.9721 14.5895 62.7221 14.7145C62.4721 14.8395 62.1468 14.902 61.7463 14.902C61.2292 14.902 60.7633 14.7812 60.3485 14.5398C59.9366 14.2955 59.6099 13.9361 59.3684 13.4616C59.1298 12.9844 59.0105 12.3977 59.0105 11.7017C59.0105 11.0057 59.1284 10.4091 59.3642 9.91193C59.6028 9.41477 59.9295 9.03409 60.3443 8.76989C60.7591 8.50284 61.2292 8.36932 61.7548 8.36932C62.161 8.36932 62.4892 8.4375 62.7392 8.57386C62.9892 8.70739 63.1838 8.86364 63.323 9.04261C63.465 9.22159 63.5744 9.37926 63.6511 9.51562H63.7449V8.45455H64.9934V15.1449C64.9934 15.7074 64.8627 16.169 64.6014 16.5298C64.34 16.8906 63.9863 17.1577 63.5403 17.331C63.0971 17.5043 62.5971 17.5909 62.0403 17.5909ZM62.0275 13.8452C62.394 13.8452 62.7037 13.7599 62.9565 13.5895C63.2122 13.4162 63.4054 13.169 63.536 12.848C63.6696 12.5241 63.7363 12.1364 63.7363 11.6847C63.7363 11.2443 63.671 10.8565 63.5403 10.5213C63.4096 10.1861 63.2179 9.92472 62.965 9.73722C62.7122 9.54687 62.3997 9.4517 62.0275 9.4517C61.644 9.4517 61.3244 9.55114 61.0687 9.75C60.813 9.94602 60.6199 10.2131 60.4892 10.5511C60.3613 10.8892 60.2974 11.267 60.2974 11.6847C60.2974 12.1136 60.3627 12.4901 60.4934 12.8139C60.6241 13.1378 60.8173 13.3906 61.073 13.5724C61.3315 13.7543 61.6497 13.8452 62.0275 13.8452Z" fill="#091E42"/>
</g>
</svg>
