<svg width="32" height="22" viewBox="0 0 32 22" fill="none" xmlns="http://www.w3.org/2000/svg">
<rect width="32" height="22" rx="11" fill="#F2F4F7"/>
<path d="M11.6172 13.5341V7.77273H12.7635V13.5341H11.6172ZM9.31179 11.2244V10.0824H15.0732V11.2244H9.31179ZM19.9482 15.1193C19.3629 15.1193 18.8402 15.0185 18.38 14.8168C17.9226 14.6151 17.5604 14.3352 17.2933 13.9773C17.0291 13.6165 16.8871 13.1989 16.8672 12.7244H18.2053C18.2223 12.983 18.3089 13.2074 18.4652 13.3977C18.6243 13.5852 18.8317 13.7301 19.0874 13.8324C19.343 13.9347 19.6271 13.9858 19.9396 13.9858C20.2834 13.9858 20.5874 13.9261 20.8516 13.8068C21.1186 13.6875 21.3274 13.5213 21.478 13.3082C21.6286 13.0923 21.7038 12.8438 21.7038 12.5625C21.7038 12.2699 21.6286 12.0128 21.478 11.7912C21.3303 11.5668 21.1129 11.3906 20.826 11.2628C20.5419 11.1349 20.1982 11.071 19.7947 11.071H19.0575V9.99716H19.7947C20.1186 9.99716 20.4027 9.93892 20.647 9.82244C20.8942 9.70597 21.0874 9.54403 21.2266 9.33665C21.3658 9.12642 21.4354 8.88068 21.4354 8.59943C21.4354 8.32955 21.3743 8.09517 21.2521 7.89631C21.1328 7.6946 20.9624 7.53693 20.7408 7.4233C20.522 7.30966 20.2635 7.25284 19.9652 7.25284C19.6811 7.25284 19.4155 7.3054 19.1683 7.41051C18.924 7.51278 18.7251 7.66051 18.5717 7.85369C18.4183 8.04403 18.3359 8.27273 18.3246 8.53977H17.0504C17.0646 8.06818 17.2038 7.65341 17.468 7.29545C17.7351 6.9375 18.0874 6.65767 18.5249 6.45597C18.9624 6.25426 19.4482 6.15341 19.9822 6.15341C20.5419 6.15341 21.0249 6.26278 21.4311 6.48153C21.8402 6.69744 22.1555 6.9858 22.3771 7.34659C22.6016 7.70739 22.7124 8.10227 22.7095 8.53125C22.7124 9.01989 22.576 9.43466 22.3004 9.77557C22.0277 10.1165 21.6641 10.3452 21.2095 10.4616V10.5298C21.7891 10.6179 22.2379 10.848 22.5561 11.2202C22.8771 11.5923 23.0362 12.054 23.0334 12.6051C23.0362 13.0852 22.9027 13.5156 22.6328 13.8963C22.3658 14.277 22.0007 14.5767 21.5376 14.7955C21.0746 15.0114 20.5447 15.1193 19.9482 15.1193Z" fill="#344054"/>
</svg>
