<svg width="32" height="22" viewBox="0 0 32 22" fill="none" xmlns="http://www.w3.org/2000/svg">
<g style="mix-blend-mode:multiply">
<rect width="32" height="22" rx="11" fill="#F2F4F7"/>
<path d="M11.6113 13.5341V7.77273H12.7576V13.5341H11.6113ZM9.30593 11.2244V10.0824H15.0673V11.2244H9.30593ZM20.068 15.1193C19.6788 15.1136 19.2953 15.0426 18.9174 14.9062C18.5424 14.7699 18.2015 14.5426 17.8947 14.2244C17.5879 13.9062 17.3422 13.4787 17.1575 12.9418C16.9757 12.4048 16.8848 11.7344 16.8848 10.9304C16.8848 10.169 16.96 9.4929 17.1106 8.90199C17.264 8.31108 17.4842 7.8125 17.7711 7.40625C18.0581 6.99716 18.4047 6.68608 18.8109 6.47301C19.2172 6.25994 19.6731 6.15341 20.1788 6.15341C20.6987 6.15341 21.1603 6.25568 21.5637 6.46023C21.9672 6.66477 22.2939 6.94744 22.5439 7.30824C22.7967 7.66903 22.9572 8.07955 23.0254 8.53977H21.7257C21.6376 8.17614 21.4629 7.87926 21.2015 7.64915C20.9402 7.41903 20.5993 7.30398 20.1788 7.30398C19.5396 7.30398 19.041 7.58239 18.6831 8.1392C18.3279 8.69602 18.149 9.47017 18.1461 10.4616H18.21C18.3606 10.2145 18.5453 10.0043 18.764 9.83097C18.9856 9.65483 19.2328 9.51989 19.5055 9.42614C19.7811 9.32955 20.0708 9.28125 20.3748 9.28125C20.8805 9.28125 21.3379 9.40483 21.747 9.65199C22.1589 9.89631 22.487 10.2344 22.7314 10.6662C22.9757 11.098 23.0978 11.5923 23.0978 12.1491C23.0978 12.706 22.9714 13.2102 22.7186 13.6619C22.4686 14.1136 22.1163 14.4716 21.6618 14.7358C21.2072 14.9972 20.676 15.125 20.068 15.1193ZM20.0637 14.0114C20.399 14.0114 20.6987 13.929 20.9629 13.7642C21.2271 13.5994 21.4359 13.3778 21.5893 13.0994C21.7427 12.821 21.8194 12.5099 21.8194 12.1662C21.8194 11.831 21.7441 11.5256 21.5936 11.25C21.4458 10.9744 21.2413 10.7557 20.9799 10.5938C20.7214 10.4318 20.426 10.3509 20.0936 10.3509C19.8407 10.3509 19.6064 10.3991 19.3904 10.4957C19.1774 10.5923 18.9899 10.7259 18.8279 10.8963C18.666 11.0668 18.5382 11.2628 18.4444 11.4844C18.3535 11.7031 18.3081 11.9347 18.3081 12.179C18.3081 12.5057 18.3833 12.8082 18.5339 13.0866C18.6873 13.3651 18.8961 13.5895 19.1603 13.7599C19.4274 13.9276 19.7285 14.0114 20.0637 14.0114Z" fill="#344054"/>
</g>
</svg>
