<svg width="62" height="22" viewBox="0 0 62 22" fill="none" xmlns="http://www.w3.org/2000/svg">
<g style="mix-blend-mode:multiply">
<rect width="62" height="22" rx="11" fill="#F5F6F7"/>
<path d="M9.3592 15V6.27273H12.47C13.149 6.27273 13.7115 6.39631 14.1575 6.64347C14.6035 6.89062 14.9373 7.22869 15.1589 7.65767C15.3805 8.08381 15.4913 8.56392 15.4913 9.09801C15.4913 9.63494 15.3791 10.1179 15.1547 10.5469C14.9331 10.973 14.5978 11.3111 14.149 11.5611C13.7029 11.8082 13.1419 11.9318 12.4657 11.9318H10.3265V10.8153H12.3464C12.7754 10.8153 13.1234 10.7415 13.3904 10.5938C13.6575 10.4432 13.8535 10.2386 13.9785 9.98011C14.1035 9.72159 14.166 9.42756 14.166 9.09801C14.166 8.76847 14.1035 8.47585 13.9785 8.22017C13.8535 7.96449 13.6561 7.7642 13.3862 7.61932C13.1191 7.47443 12.7669 7.40199 12.3294 7.40199H10.676V15H9.3592ZM16.9327 15V8.45455H18.1642V9.49432H18.2324C18.3517 9.14205 18.562 8.86506 18.8631 8.66335C19.1671 8.45881 19.5108 8.35653 19.8944 8.35653C19.9739 8.35653 20.0676 8.35937 20.1756 8.36506C20.2864 8.37074 20.373 8.37784 20.4355 8.38636V9.60511C20.3844 9.59091 20.2935 9.57528 20.1628 9.55824C20.0321 9.53835 19.9015 9.52841 19.7708 9.52841C19.4696 9.52841 19.2012 9.59233 18.9654 9.72017C18.7324 9.84517 18.5478 10.0199 18.4114 10.2443C18.275 10.4659 18.2069 10.7187 18.2069 11.0028V15H16.9327ZM24.0609 15.1321C23.4473 15.1321 22.9118 14.9915 22.4544 14.7102C21.997 14.429 21.6419 14.0355 21.389 13.5298C21.1362 13.0241 21.0098 12.4332 21.0098 11.7571C21.0098 11.0781 21.1362 10.4844 21.389 9.97585C21.6419 9.46733 21.997 9.07244 22.4544 8.79119C22.9118 8.50994 23.4473 8.36932 24.0609 8.36932C24.6745 8.36932 25.21 8.50994 25.6674 8.79119C26.1248 9.07244 26.4799 9.46733 26.7328 9.97585C26.9856 10.4844 27.112 11.0781 27.112 11.7571C27.112 12.4332 26.9856 13.0241 26.7328 13.5298C26.4799 14.0355 26.1248 14.429 25.6674 14.7102C25.21 14.9915 24.6745 15.1321 24.0609 15.1321ZM24.0652 14.0625C24.4629 14.0625 24.7924 13.9574 25.0538 13.7472C25.3152 13.5369 25.5083 13.2571 25.6333 12.9077C25.7612 12.5582 25.8251 12.1733 25.8251 11.7528C25.8251 11.3352 25.7612 10.9517 25.6333 10.6023C25.5083 10.25 25.3152 9.96733 25.0538 9.75426C24.7924 9.54119 24.4629 9.43466 24.0652 9.43466C23.6646 9.43466 23.3322 9.54119 23.068 9.75426C22.8066 9.96733 22.612 10.25 22.4842 10.6023C22.3592 10.9517 22.2967 11.3352 22.2967 11.7528C22.2967 12.1733 22.3592 12.5582 22.4842 12.9077C22.612 13.2571 22.8066 13.5369 23.068 13.7472C23.3322 13.9574 23.6646 14.0625 24.0652 14.0625ZM30.9846 15.1278C30.4561 15.1278 29.9846 14.9929 29.5698 14.723C29.1578 14.4503 28.834 14.0625 28.5982 13.5597C28.3652 13.054 28.2488 12.4474 28.2488 11.7401C28.2488 11.0327 28.3667 10.4276 28.6025 9.92472C28.8411 9.42187 29.1678 9.03693 29.5826 8.76989C29.9973 8.50284 30.4675 8.36932 30.9931 8.36932C31.3993 8.36932 31.726 8.4375 31.9732 8.57386C32.2232 8.70739 32.4164 8.86364 32.5527 9.04261C32.6919 9.22159 32.7999 9.37926 32.8766 9.51562H32.9533V6.27273H34.2275V15H32.9831V13.9815H32.8766C32.7999 14.1207 32.6891 14.2798 32.5442 14.4588C32.4022 14.6378 32.2061 14.794 31.9561 14.9276C31.7061 15.0611 31.3823 15.1278 30.9846 15.1278ZM31.2658 14.0412C31.6323 14.0412 31.9419 13.9446 32.1948 13.7514C32.4505 13.5554 32.6436 13.2841 32.7743 12.9375C32.9078 12.5909 32.9746 12.1875 32.9746 11.7273C32.9746 11.2727 32.9093 10.875 32.7786 10.5341C32.6479 10.1932 32.4561 9.92756 32.2033 9.73722C31.9505 9.54687 31.638 9.4517 31.2658 9.4517C30.8823 9.4517 30.5627 9.55114 30.307 9.75C30.0513 9.94886 29.8581 10.2202 29.7275 10.5639C29.5996 10.9077 29.5357 11.2955 29.5357 11.7273C29.5357 12.1648 29.601 12.5582 29.7317 12.9077C29.8624 13.2571 30.0556 13.5341 30.3113 13.7386C30.5698 13.9403 30.888 14.0412 31.2658 14.0412ZM40.1923 12.2855V8.45455H41.4707V15H40.2179V13.8665H40.1497C39.9991 14.2159 39.7576 14.5071 39.4252 14.7401C39.0957 14.9702 38.6852 15.0852 38.1937 15.0852C37.7733 15.0852 37.4011 14.9929 37.0772 14.8082C36.7562 14.6207 36.5034 14.3438 36.3187 13.9773C36.1369 13.6108 36.046 13.1577 36.046 12.6179V8.45455H37.3201V12.4645C37.3201 12.9105 37.4437 13.2656 37.6909 13.5298C37.938 13.794 38.2591 13.9261 38.6539 13.9261C38.8926 13.9261 39.1298 13.8665 39.3656 13.7472C39.6042 13.6278 39.8017 13.4474 39.9579 13.206C40.117 12.9645 40.1951 12.6577 40.1923 12.2855ZM45.9398 15.1321C45.3063 15.1321 44.7608 14.9886 44.3034 14.7017C43.8489 14.4119 43.4995 14.0128 43.2551 13.5043C43.0108 12.9957 42.8887 12.4134 42.8887 11.7571C42.8887 11.0923 43.0137 10.5057 43.2637 9.99716C43.5137 9.4858 43.8659 9.08665 44.3205 8.79972C44.775 8.51278 45.3105 8.36932 45.927 8.36932C46.4242 8.36932 46.8674 8.46165 47.2566 8.64631C47.6458 8.82812 47.9597 9.08381 48.1983 9.41335C48.4398 9.7429 48.5833 10.1278 48.6287 10.5682H47.3887C47.3205 10.2614 47.1642 9.99716 46.9199 9.77557C46.6784 9.55398 46.3546 9.44318 45.9483 9.44318C45.5932 9.44318 45.2821 9.53693 45.0151 9.72443C44.7509 9.90909 44.5449 10.1733 44.3972 10.517C44.2495 10.858 44.1756 11.2614 44.1756 11.7273C44.1756 12.2045 44.248 12.6165 44.3929 12.9631C44.5378 13.3097 44.7424 13.5781 45.0066 13.7685C45.2736 13.9588 45.5875 14.054 45.9483 14.054C46.1898 14.054 46.4086 14.0099 46.6046 13.9219C46.8034 13.831 46.9696 13.7017 47.1032 13.5341C47.2395 13.3665 47.3347 13.1648 47.3887 12.929H48.6287C48.5833 13.3523 48.4455 13.7301 48.2154 14.0625C47.9853 14.3949 47.677 14.6562 47.2907 14.8466C46.9071 15.0369 46.4569 15.1321 45.9398 15.1321ZM53.0467 8.45455V9.47727H49.4714V8.45455H53.0467ZM50.4302 6.88636H51.7044V13.0781C51.7044 13.3253 51.7413 13.5114 51.8152 13.6364C51.889 13.7585 51.9842 13.8423 52.1007 13.8878C52.22 13.9304 52.3493 13.9517 52.4885 13.9517C52.5907 13.9517 52.6802 13.9446 52.7569 13.9304C52.8336 13.9162 52.8933 13.9048 52.9359 13.8963L53.166 14.9489C53.0922 14.9773 52.987 15.0057 52.8507 15.0341C52.7143 15.0653 52.5439 15.0824 52.3393 15.0852C52.0041 15.0909 51.6916 15.0312 51.4018 14.9062C51.112 14.7812 50.8777 14.5881 50.6987 14.3267C50.5197 14.0653 50.4302 13.7372 50.4302 13.3423V6.88636Z" fill="#15294B"/>
</g>
</svg>
